<svg width="120" height="120" viewBox="0 0 120 120" fill="none" xmlns="http://www.w3.org/2000/svg">
<circle cx="60" cy="60" r="60" fill="#FF0000" fill-opacity="0.1"/>
<circle cx="60" cy="60" r="45" fill="#FF0000" fill-opacity="0.15"/>
<path d="M77.5 48H70.382C68.582 48 68.504 47.772 68.01 46.292L67.61 45.078C67.3127 44.1805 66.7396 43.3998 65.9725 42.8471C65.2054 42.2944 64.2835 41.9979 63.338 42H55.662C54.7172 41.9988 53.7961 42.2956 53.0298 42.8483C52.2636 43.4009 51.6911 44.1812 51.394 45.078L50.994 46.292C50.5 47.772 50.422 48 48.622 48H41.5C41.1022 48 40.7206 48.158 40.4393 48.4394C40.158 48.7207 40 49.1022 40 49.5C40 49.8978 40.158 50.2794 40.4393 50.5607C40.7206 50.842 41.1022 51 41.5 51H44.1L45.634 74C45.6146 74.9663 45.7989 75.9259 46.1747 76.8164C46.5505 77.7068 47.1096 78.5082 47.8154 79.1685C48.5213 79.8287 49.3583 80.333 50.2718 80.6485C51.1854 80.9641 52.1551 81.0838 53.118 81H65.89C66.8529 81.0838 67.8226 80.9641 68.7362 80.6485C69.6497 80.333 70.4867 79.8287 71.1926 79.1685C71.8984 78.5082 72.4575 77.7068 72.8333 76.8164C73.2091 75.9259 73.3934 74.9663 73.374 74L74.9 51H77.5C77.8978 51 78.2794 50.842 78.5607 50.5607C78.842 50.2794 79 49.8978 79 49.5C79 49.1022 78.842 48.7207 78.5607 48.4394C78.2794 48.158 77.8978 48 77.5 48ZM54.24 46.026C54.3389 45.7271 54.5296 45.467 54.7849 45.2828C55.0402 45.0986 55.3472 44.9996 55.662 45H63.338C63.6528 44.9996 63.9598 45.0986 64.2151 45.2828C64.4704 45.467 64.6611 45.7271 64.76 46.026L65.16 47.24C65.246 47.502 65.336 47.756 65.432 48H53.562C53.658 47.754 53.748 47.5 53.834 47.24L54.24 46.026ZM70.376 73.798C70.4198 74.3862 70.3312 74.9768 70.1167 75.5262C69.9022 76.0757 69.5673 76.57 69.1365 76.973C68.7058 77.3759 68.1902 77.6772 67.6276 77.8545C67.0651 78.0319 66.47 78.081 65.886 77.998H53.114C52.53 78.081 51.9349 78.0319 51.3724 77.8545C50.8098 77.6772 50.2942 77.3759 49.8635 76.973C49.4327 76.57 49.0978 76.0757 48.8833 75.5262C48.6688 74.9768 48.5802 74.3862 48.624 73.798L47.1 51H48.614C48.864 51 49.07 50.974 49.296 50.958C49.3628 50.9774 49.431 50.9914 49.5 51H69.5C69.5677 50.9912 69.6345 50.9772 69.7 50.958C69.926 50.974 70.132 51 70.382 51H71.9L70.376 73.798ZM65 59.5V69.5C65 69.8978 64.842 70.2794 64.5607 70.5607C64.2794 70.842 63.8978 71 63.5 71C63.1022 71 62.7206 70.842 62.4393 70.5607C62.158 70.2794 62 69.8978 62 69.5V59.5C62 59.1022 62.158 58.7207 62.4393 58.4394C62.7206 58.158 63.1022 58 63.5 58C63.8978 58 64.2794 58.158 64.5607 58.4394C64.842 58.7207 65 59.1022 65 59.5ZM57 59.5V69.5C57 69.8978 56.842 70.2794 56.5607 70.5607C56.2794 70.842 55.8978 71 55.5 71C55.1022 71 54.7206 70.842 54.4393 70.5607C54.158 70.2794 54 69.8978 54 69.5V59.5C54 59.1022 54.158 58.7207 54.4393 58.4394C54.7206 58.158 55.1022 58 55.5 58C55.8978 58 56.2794 58.158 56.5607 58.4394C56.842 58.7207 57 59.1022 57 59.5Z" fill="#FF0000"/>
</svg>
