<svg xmlns="http://www.w3.org/2000/svg" version="1.1" xmlns:xlink="http://www.w3.org/1999/xlink" width="32" height="32" x="0" y="0" viewBox="0 0 32 32" style="enable-background:new 0 0 512 512" xml:space="preserve" class=""><g><path d="M16 31A15 15 0 1 0 1 16a15.013 15.013 0 0 0 15 15zm0-23a5 5 0 1 1-5 5 5 5 0 0 1 5-5zM6.67 23.96A12.661 12.661 0 0 1 16 20a12.78 12.78 0 0 1 9.33 3.96c.17.17.33.35.5.54a12.987 12.987 0 0 1-19.66 0c.17-.19.33-.37.5-.54z" fill="#E8E8E8" opacity="1" data-original="#000000" class=""></path></g></svg>