<svg width="120" height="120" viewBox="0 0 120 120" fill="none" xmlns="http://www.w3.org/2000/svg">
<path d="M59.999 68.8359C58.6571 68.8359 57.5322 69.9608 57.5322 71.3027C57.5322 72.6447 58.6571 73.7695 59.999 73.7695C61.2916 73.7695 62.4658 72.6447 62.4066 71.3619C62.4658 69.9509 61.3508 68.8359 59.999 68.8359Z" fill="#F87316"/>
<path d="M82.832 77.5771C84.3811 74.9031 84.391 71.716 82.8517 69.0519L67.3998 42.2922C65.8704 39.5985 63.1076 38 60.0093 38C56.911 38 54.1482 39.6083 52.6188 42.2823L37.1471 69.0716C35.6078 71.7654 35.6177 74.9722 37.1767 77.6462C38.716 80.2906 41.4689 81.8792 44.5475 81.8792H75.4119C78.5003 81.8792 81.273 80.2708 82.832 77.5771ZM79.4771 75.6432C78.6187 77.1232 77.0992 78.0014 75.402 78.0014H44.5376C42.8602 78.0014 41.3505 77.143 40.5118 75.6925C39.6632 74.2223 39.6534 72.4659 40.5019 70.9859L55.9736 44.2064C56.8123 42.7362 58.3121 41.8679 60.0093 41.8679C61.6966 41.8679 63.2062 42.7461 64.0449 44.2163L79.5067 70.9957C80.3356 72.4363 80.3257 74.1729 79.4771 75.6432Z" fill="#F87316"/>
<path d="M59.3878 51.5189C58.2136 51.8543 57.4834 52.92 57.4834 54.2126C57.5426 54.9921 57.5919 55.7815 57.6511 56.561C57.8189 59.531 57.9866 62.4418 58.1544 65.4118C58.2136 66.4182 58.9931 67.1484 59.9995 67.1484C61.006 67.1484 61.7953 66.3689 61.8447 65.3526C61.8447 64.7408 61.8447 64.1784 61.9039 63.5568C62.0124 61.6524 62.1308 59.7481 62.2394 57.8437C62.2986 56.6103 62.4071 55.3769 62.4663 54.1435C62.4663 53.6995 62.4071 53.3048 62.2394 52.9101C61.7361 51.805 60.5619 51.2426 59.3878 51.5189Z" fill="#F87316"/>
<circle cx="60" cy="60" r="60" fill="#FF4D00" fill-opacity="0.1"/>
<circle cx="60" cy="60" r="45" fill="#FF8C00" fill-opacity="0.15"/>
</svg>
